<mxfile host="app.diagrams.net" agent="Mozilla/5.0 (Windows NT 10.0; Win64; x64; rv:143.0) Gecko/20100101 Firefox/143.0" version="28.2.5" pages="5">
  <diagram id="IE7WIh_hdT-tUPMYm3_A" name="Bsp1_Person_Ausweis">
    <mxGraphModel dx="2226" dy="1408" grid="0" gridSize="10" guides="1" tooltips="1" connect="1" arrows="1" fold="1" page="0" pageScale="1" pageWidth="827" pageHeight="1169" math="0" shadow="0">
      <root>
        <mxCell id="0" />
        <mxCell id="1" parent="0" />
        <mxCell id="hpFbLfDfg1rGi4zCeGRr-1" value="&lt;font size=&quot;1&quot;&gt;&lt;b style=&quot;background-color: rgb(128, 255, 0); font-size: 30px;&quot;&gt;ER-Modell: Übung&lt;/b&gt;&lt;/font&gt;" style="text;html=1;align=center;verticalAlign=middle;whiteSpace=wrap;rounded=0;fontSize=16;" parent="1" vertex="1">
          <mxGeometry x="-401" y="-181" width="1215" height="30" as="geometry" />
        </mxCell>
        <mxCell id="hpFbLfDfg1rGi4zCeGRr-2" value="&lt;div align=&quot;left&quot;&gt;&lt;u&gt;Beispiel1:&lt;/u&gt; Wir betrachten die Relation: &lt;font color=&quot;#0000ff&quot;&gt;Personalausweis identifiziert Person&lt;/font&gt;&lt;br&gt;&lt;/div&gt;&lt;div align=&quot;left&quot;&gt;&lt;br&gt;&lt;font color=&quot;#0000ff&quot;&gt;Um welche Art von Relation handelt es sich? (1:1, 1:n oder m:n)&lt;br&gt;Ordne die Begriffe richtig zu und unterstreiche die Primärschlüssel:&lt;br&gt;Person, Ausweis, identifziert, Personalausweisnummer, Beruf, DNA, Foto, Spitzname&lt;br&gt;&lt;/font&gt;&lt;br&gt;&lt;/div&gt;" style="text;html=1;align=left;verticalAlign=middle;whiteSpace=wrap;rounded=0;fontSize=16;fillColor=#fff2cc;strokeColor=#d6b656;" parent="1" vertex="1">
          <mxGeometry x="-429" y="-111" width="676" height="221" as="geometry" />
        </mxCell>
        <mxCell id="hpFbLfDfg1rGi4zCeGRr-8" value="Relationship" style="shape=rhombus;double=1;perimeter=rhombusPerimeter;whiteSpace=wrap;html=1;align=center;" parent="1" vertex="1">
          <mxGeometry x="98" y="281" width="120" height="60" as="geometry" />
        </mxCell>
        <mxCell id="hpFbLfDfg1rGi4zCeGRr-9" value="Entity" style="shape=ext;margin=3;double=1;whiteSpace=wrap;html=1;align=center;" parent="1" vertex="1">
          <mxGeometry x="-266" y="291" width="100" height="40" as="geometry" />
        </mxCell>
        <mxCell id="hpFbLfDfg1rGi4zCeGRr-10" value="Entity" style="shape=ext;margin=3;double=1;whiteSpace=wrap;html=1;align=center;" parent="1" vertex="1">
          <mxGeometry x="433" y="291" width="100" height="40" as="geometry" />
        </mxCell>
        <mxCell id="hpFbLfDfg1rGi4zCeGRr-11" value="Attribute" style="ellipse;whiteSpace=wrap;html=1;align=center;" parent="1" vertex="1">
          <mxGeometry x="-381" y="197" width="100" height="40" as="geometry" />
        </mxCell>
        <mxCell id="hpFbLfDfg1rGi4zCeGRr-12" value="Attribute" style="ellipse;whiteSpace=wrap;html=1;align=center;" parent="1" vertex="1">
          <mxGeometry x="-237" y="192" width="100" height="40" as="geometry" />
        </mxCell>
        <mxCell id="hpFbLfDfg1rGi4zCeGRr-13" value="Attribute" style="ellipse;whiteSpace=wrap;html=1;align=center;" parent="1" vertex="1">
          <mxGeometry x="-79" y="207" width="100" height="40" as="geometry" />
        </mxCell>
        <mxCell id="hpFbLfDfg1rGi4zCeGRr-14" value="Attribute" style="ellipse;whiteSpace=wrap;html=1;align=center;" parent="1" vertex="1">
          <mxGeometry x="313" y="178" width="100" height="40" as="geometry" />
        </mxCell>
        <mxCell id="hpFbLfDfg1rGi4zCeGRr-15" value="Attribute" style="ellipse;whiteSpace=wrap;html=1;align=center;" parent="1" vertex="1">
          <mxGeometry x="457" y="173" width="100" height="40" as="geometry" />
        </mxCell>
        <mxCell id="hpFbLfDfg1rGi4zCeGRr-16" value="Attribute" style="ellipse;whiteSpace=wrap;html=1;align=center;" parent="1" vertex="1">
          <mxGeometry x="615" y="188" width="100" height="40" as="geometry" />
        </mxCell>
        <mxCell id="hpFbLfDfg1rGi4zCeGRr-17" value="" style="endArrow=none;html=1;rounded=0;fontSize=12;startSize=8;endSize=8;curved=1;exitX=0.5;exitY=1;exitDx=0;exitDy=0;entryX=0.5;entryY=0;entryDx=0;entryDy=0;" parent="1" source="hpFbLfDfg1rGi4zCeGRr-12" target="hpFbLfDfg1rGi4zCeGRr-9" edge="1">
          <mxGeometry relative="1" as="geometry">
            <mxPoint x="-177" y="241" as="sourcePoint" />
            <mxPoint x="-220" y="289" as="targetPoint" />
          </mxGeometry>
        </mxCell>
        <mxCell id="hpFbLfDfg1rGi4zCeGRr-18" value="" style="endArrow=none;html=1;rounded=0;fontSize=12;startSize=8;endSize=8;curved=1;entryX=0;entryY=0.5;entryDx=0;entryDy=0;exitX=1;exitY=0.5;exitDx=0;exitDy=0;" parent="1" source="hpFbLfDfg1rGi4zCeGRr-9" target="hpFbLfDfg1rGi4zCeGRr-8" edge="1">
          <mxGeometry relative="1" as="geometry">
            <mxPoint x="-102" y="317" as="sourcePoint" />
            <mxPoint x="58" y="317" as="targetPoint" />
          </mxGeometry>
        </mxCell>
        <mxCell id="hpFbLfDfg1rGi4zCeGRr-19" value="" style="endArrow=none;html=1;rounded=0;fontSize=12;startSize=8;endSize=8;curved=1;exitX=1;exitY=0.5;exitDx=0;exitDy=0;entryX=0;entryY=0.5;entryDx=0;entryDy=0;" parent="1" source="hpFbLfDfg1rGi4zCeGRr-8" target="hpFbLfDfg1rGi4zCeGRr-10" edge="1">
          <mxGeometry relative="1" as="geometry">
            <mxPoint x="224" y="314" as="sourcePoint" />
            <mxPoint x="384" y="314" as="targetPoint" />
          </mxGeometry>
        </mxCell>
        <mxCell id="hpFbLfDfg1rGi4zCeGRr-22" value="" style="endArrow=none;html=1;rounded=0;fontSize=12;startSize=8;endSize=8;curved=1;entryX=0.5;entryY=0;entryDx=0;entryDy=0;exitX=0.5;exitY=1;exitDx=0;exitDy=0;" parent="1" source="hpFbLfDfg1rGi4zCeGRr-11" target="hpFbLfDfg1rGi4zCeGRr-9" edge="1">
          <mxGeometry relative="1" as="geometry">
            <mxPoint x="-397" y="284" as="sourcePoint" />
            <mxPoint x="-237" y="284" as="targetPoint" />
          </mxGeometry>
        </mxCell>
        <mxCell id="hpFbLfDfg1rGi4zCeGRr-24" value="" style="endArrow=none;html=1;rounded=0;fontSize=12;startSize=8;endSize=8;curved=1;entryX=0.5;entryY=0;entryDx=0;entryDy=0;exitX=0.61;exitY=0.95;exitDx=0;exitDy=0;exitPerimeter=0;" parent="1" source="hpFbLfDfg1rGi4zCeGRr-14" target="hpFbLfDfg1rGi4zCeGRr-10" edge="1">
          <mxGeometry relative="1" as="geometry">
            <mxPoint x="288" y="261" as="sourcePoint" />
            <mxPoint x="448" y="261" as="targetPoint" />
          </mxGeometry>
        </mxCell>
        <mxCell id="hpFbLfDfg1rGi4zCeGRr-25" value="" style="endArrow=none;html=1;rounded=0;fontSize=12;startSize=8;endSize=8;curved=1;exitX=0.5;exitY=1;exitDx=0;exitDy=0;entryX=0.5;entryY=0;entryDx=0;entryDy=0;" parent="1" source="hpFbLfDfg1rGi4zCeGRr-13" target="hpFbLfDfg1rGi4zCeGRr-9" edge="1">
          <mxGeometry relative="1" as="geometry">
            <mxPoint x="-44" y="258" as="sourcePoint" />
            <mxPoint x="-73" y="317" as="targetPoint" />
          </mxGeometry>
        </mxCell>
        <mxCell id="hpFbLfDfg1rGi4zCeGRr-26" value="" style="endArrow=none;html=1;rounded=0;fontSize=12;startSize=8;endSize=8;curved=1;exitX=0.5;exitY=1;exitDx=0;exitDy=0;" parent="1" source="hpFbLfDfg1rGi4zCeGRr-15" edge="1">
          <mxGeometry relative="1" as="geometry">
            <mxPoint x="407" y="213" as="sourcePoint" />
            <mxPoint x="481" y="288" as="targetPoint" />
          </mxGeometry>
        </mxCell>
        <mxCell id="YZeSG1dF51Qd7wsfDoiG-1" value="" style="endArrow=none;html=1;rounded=0;exitX=0.5;exitY=0;exitDx=0;exitDy=0;entryX=0.5;entryY=1;entryDx=0;entryDy=0;" edge="1" parent="1" source="hpFbLfDfg1rGi4zCeGRr-10" target="hpFbLfDfg1rGi4zCeGRr-16">
          <mxGeometry width="50" height="50" relative="1" as="geometry">
            <mxPoint x="158" y="240" as="sourcePoint" />
            <mxPoint x="208" y="190" as="targetPoint" />
          </mxGeometry>
        </mxCell>
      </root>
    </mxGraphModel>
  </diagram>
  <diagram name="Kopie von Bsp1_Person_Ausweis" id="jnGblc-XR9ksLr3gAGs8">
    <mxGraphModel dx="1902" dy="1223" grid="0" gridSize="10" guides="1" tooltips="1" connect="1" arrows="1" fold="1" page="0" pageScale="1" pageWidth="827" pageHeight="1169" math="0" shadow="0">
      <root>
        <mxCell id="ELhxadiT-5cnRN3S1Kb2-0" />
        <mxCell id="ELhxadiT-5cnRN3S1Kb2-1" parent="ELhxadiT-5cnRN3S1Kb2-0" />
        <mxCell id="ELhxadiT-5cnRN3S1Kb2-2" value="&lt;font size=&quot;1&quot;&gt;&lt;b style=&quot;background-color: rgb(128, 255, 0); font-size: 30px;&quot;&gt;ER-Modell: Übung&lt;/b&gt;&lt;/font&gt;" style="text;html=1;align=center;verticalAlign=middle;whiteSpace=wrap;rounded=0;fontSize=16;" vertex="1" parent="ELhxadiT-5cnRN3S1Kb2-1">
          <mxGeometry x="-401" y="-181" width="1215" height="30" as="geometry" />
        </mxCell>
        <mxCell id="ELhxadiT-5cnRN3S1Kb2-3" value="&lt;div align=&quot;left&quot;&gt;&lt;u&gt;Beispiel1:&lt;/u&gt; Wir betrachten die Relation: &lt;font color=&quot;#0000ff&quot;&gt;Personalausweis identifiziert Person&lt;/font&gt;&lt;br&gt;&lt;/div&gt;&lt;div align=&quot;left&quot;&gt;&lt;br&gt;&lt;font color=&quot;#0000ff&quot;&gt;Um welche Art von Relation handelt es sich? (1:1, 1:n oder m:n)&lt;br&gt;Ordne die Begriffe richtig zu und unterstreiche die Primärschlüssel:&lt;br&gt;Person, Ausweis, identifziert, Personalausweisnummer, Beruf, DNA, Foto, Spitzname&lt;br&gt;&lt;/font&gt;&lt;br&gt;&lt;/div&gt;" style="text;html=1;align=left;verticalAlign=middle;whiteSpace=wrap;rounded=0;fontSize=16;fillColor=#fff2cc;strokeColor=#d6b656;" vertex="1" parent="ELhxadiT-5cnRN3S1Kb2-1">
          <mxGeometry x="-429" y="-111" width="676" height="221" as="geometry" />
        </mxCell>
        <mxCell id="ELhxadiT-5cnRN3S1Kb2-4" value="gehört zu" style="shape=rhombus;double=1;perimeter=rhombusPerimeter;whiteSpace=wrap;html=1;align=center;" vertex="1" parent="ELhxadiT-5cnRN3S1Kb2-1">
          <mxGeometry x="-47" y="276" width="120" height="60" as="geometry" />
        </mxCell>
        <mxCell id="ELhxadiT-5cnRN3S1Kb2-5" value="SCHUELER" style="shape=ext;margin=3;double=1;whiteSpace=wrap;html=1;align=center;" vertex="1" parent="ELhxadiT-5cnRN3S1Kb2-1">
          <mxGeometry x="-260" y="286" width="100" height="40" as="geometry" />
        </mxCell>
        <mxCell id="ELhxadiT-5cnRN3S1Kb2-7" value="&lt;u&gt;Sid&lt;/u&gt;" style="ellipse;whiteSpace=wrap;html=1;align=center;" vertex="1" parent="ELhxadiT-5cnRN3S1Kb2-1">
          <mxGeometry x="-377" y="381" width="100" height="40" as="geometry" />
        </mxCell>
        <mxCell id="ELhxadiT-5cnRN3S1Kb2-8" value="SName" style="ellipse;whiteSpace=wrap;html=1;align=center;" vertex="1" parent="ELhxadiT-5cnRN3S1Kb2-1">
          <mxGeometry x="-260" y="388" width="100" height="40" as="geometry" />
        </mxCell>
        <mxCell id="ELhxadiT-5cnRN3S1Kb2-9" value="SGeburtsdatum" style="ellipse;whiteSpace=wrap;html=1;align=center;" vertex="1" parent="ELhxadiT-5cnRN3S1Kb2-1">
          <mxGeometry x="-136" y="381" width="100" height="40" as="geometry" />
        </mxCell>
        <mxCell id="ELhxadiT-5cnRN3S1Kb2-13" value="" style="endArrow=none;html=1;rounded=0;fontSize=12;startSize=8;endSize=8;curved=1;exitX=0.5;exitY=0;exitDx=0;exitDy=0;entryX=0.5;entryY=1;entryDx=0;entryDy=0;" edge="1" parent="ELhxadiT-5cnRN3S1Kb2-1" source="ELhxadiT-5cnRN3S1Kb2-8" target="ELhxadiT-5cnRN3S1Kb2-5">
          <mxGeometry relative="1" as="geometry">
            <mxPoint x="-177" y="241" as="sourcePoint" />
            <mxPoint x="-220" y="289" as="targetPoint" />
          </mxGeometry>
        </mxCell>
        <mxCell id="ELhxadiT-5cnRN3S1Kb2-14" value="" style="endArrow=none;html=1;rounded=0;fontSize=12;startSize=8;endSize=8;curved=1;entryX=0;entryY=0.5;entryDx=0;entryDy=0;exitX=1;exitY=0.5;exitDx=0;exitDy=0;" edge="1" parent="ELhxadiT-5cnRN3S1Kb2-1" source="ELhxadiT-5cnRN3S1Kb2-5" target="ELhxadiT-5cnRN3S1Kb2-4">
          <mxGeometry relative="1" as="geometry">
            <mxPoint x="-102" y="317" as="sourcePoint" />
            <mxPoint x="58" y="317" as="targetPoint" />
          </mxGeometry>
        </mxCell>
        <mxCell id="ELhxadiT-5cnRN3S1Kb2-15" value="" style="endArrow=none;html=1;rounded=0;fontSize=12;startSize=8;endSize=8;curved=1;exitX=1;exitY=0.5;exitDx=0;exitDy=0;entryX=0;entryY=0.5;entryDx=0;entryDy=0;" edge="1" parent="ELhxadiT-5cnRN3S1Kb2-1" source="ELhxadiT-5cnRN3S1Kb2-4" target="iFKiM5tPbQ27B2Cs5Rei-1">
          <mxGeometry relative="1" as="geometry">
            <mxPoint x="224" y="314" as="sourcePoint" />
            <mxPoint x="199" y="313" as="targetPoint" />
          </mxGeometry>
        </mxCell>
        <mxCell id="ELhxadiT-5cnRN3S1Kb2-16" value="" style="endArrow=none;html=1;rounded=0;fontSize=12;startSize=8;endSize=8;curved=1;entryX=0.5;entryY=1;entryDx=0;entryDy=0;exitX=0.5;exitY=0;exitDx=0;exitDy=0;" edge="1" parent="ELhxadiT-5cnRN3S1Kb2-1" source="ELhxadiT-5cnRN3S1Kb2-7" target="ELhxadiT-5cnRN3S1Kb2-5">
          <mxGeometry relative="1" as="geometry">
            <mxPoint x="-397" y="284" as="sourcePoint" />
            <mxPoint x="-237" y="284" as="targetPoint" />
          </mxGeometry>
        </mxCell>
        <mxCell id="ELhxadiT-5cnRN3S1Kb2-18" value="" style="endArrow=none;html=1;rounded=0;fontSize=12;startSize=8;endSize=8;curved=1;exitX=0.5;exitY=0;exitDx=0;exitDy=0;entryX=0.5;entryY=1;entryDx=0;entryDy=0;" edge="1" parent="ELhxadiT-5cnRN3S1Kb2-1" source="ELhxadiT-5cnRN3S1Kb2-9" target="ELhxadiT-5cnRN3S1Kb2-5">
          <mxGeometry relative="1" as="geometry">
            <mxPoint x="-44" y="258" as="sourcePoint" />
            <mxPoint x="-73" y="317" as="targetPoint" />
          </mxGeometry>
        </mxCell>
        <mxCell id="iFKiM5tPbQ27B2Cs5Rei-1" value="KLASSE" style="shape=ext;margin=3;double=1;whiteSpace=wrap;html=1;align=center;" vertex="1" parent="ELhxadiT-5cnRN3S1Kb2-1">
          <mxGeometry x="180" y="286" width="100" height="40" as="geometry" />
        </mxCell>
        <mxCell id="iFKiM5tPbQ27B2Cs5Rei-2" value="&lt;u&gt;KBez&lt;/u&gt;" style="ellipse;whiteSpace=wrap;html=1;align=center;" vertex="1" parent="ELhxadiT-5cnRN3S1Kb2-1">
          <mxGeometry x="59.5" y="381" width="100" height="40" as="geometry" />
        </mxCell>
        <mxCell id="iFKiM5tPbQ27B2Cs5Rei-3" value="KLehrer" style="ellipse;whiteSpace=wrap;html=1;align=center;" vertex="1" parent="ELhxadiT-5cnRN3S1Kb2-1">
          <mxGeometry x="180" y="381" width="100" height="40" as="geometry" />
        </mxCell>
        <mxCell id="iFKiM5tPbQ27B2Cs5Rei-4" value="KProfil" style="ellipse;whiteSpace=wrap;html=1;align=center;" vertex="1" parent="ELhxadiT-5cnRN3S1Kb2-1">
          <mxGeometry x="300.5" y="381" width="100" height="40" as="geometry" />
        </mxCell>
        <mxCell id="iFKiM5tPbQ27B2Cs5Rei-5" value="" style="endArrow=none;html=1;rounded=0;fontSize=12;startSize=8;endSize=8;curved=1;exitX=0.5;exitY=0;exitDx=0;exitDy=0;entryX=0.5;entryY=1;entryDx=0;entryDy=0;" edge="1" source="iFKiM5tPbQ27B2Cs5Rei-3" target="iFKiM5tPbQ27B2Cs5Rei-1" parent="ELhxadiT-5cnRN3S1Kb2-1">
          <mxGeometry relative="1" as="geometry">
            <mxPoint x="291" y="248" as="sourcePoint" />
            <mxPoint x="248" y="296" as="targetPoint" />
          </mxGeometry>
        </mxCell>
        <mxCell id="iFKiM5tPbQ27B2Cs5Rei-7" value="" style="endArrow=none;html=1;rounded=0;fontSize=12;startSize=8;endSize=8;curved=1;entryX=0.5;entryY=1;entryDx=0;entryDy=0;exitX=0.5;exitY=0;exitDx=0;exitDy=0;" edge="1" source="iFKiM5tPbQ27B2Cs5Rei-2" target="iFKiM5tPbQ27B2Cs5Rei-1" parent="ELhxadiT-5cnRN3S1Kb2-1">
          <mxGeometry relative="1" as="geometry">
            <mxPoint x="71" y="291" as="sourcePoint" />
            <mxPoint x="231" y="291" as="targetPoint" />
          </mxGeometry>
        </mxCell>
        <mxCell id="iFKiM5tPbQ27B2Cs5Rei-8" value="" style="endArrow=none;html=1;rounded=0;fontSize=12;startSize=8;endSize=8;curved=1;exitX=0.5;exitY=0;exitDx=0;exitDy=0;entryX=0.5;entryY=1;entryDx=0;entryDy=0;" edge="1" source="iFKiM5tPbQ27B2Cs5Rei-4" target="iFKiM5tPbQ27B2Cs5Rei-1" parent="ELhxadiT-5cnRN3S1Kb2-1">
          <mxGeometry relative="1" as="geometry">
            <mxPoint x="424" y="265" as="sourcePoint" />
            <mxPoint x="395" y="324" as="targetPoint" />
          </mxGeometry>
        </mxCell>
        <mxCell id="iFKiM5tPbQ27B2Cs5Rei-9" value="n" style="text;html=1;align=center;verticalAlign=middle;resizable=0;points=[];autosize=1;strokeColor=none;fillColor=none;" vertex="1" parent="ELhxadiT-5cnRN3S1Kb2-1">
          <mxGeometry x="-147" y="281" width="25" height="26" as="geometry" />
        </mxCell>
        <mxCell id="iFKiM5tPbQ27B2Cs5Rei-10" value="1" style="text;html=1;align=center;verticalAlign=middle;resizable=0;points=[];autosize=1;strokeColor=none;fillColor=none;" vertex="1" parent="ELhxadiT-5cnRN3S1Kb2-1">
          <mxGeometry x="134.5" y="281" width="25" height="26" as="geometry" />
        </mxCell>
      </root>
    </mxGraphModel>
  </diagram>
  <diagram name="Bsp2_Student_Bibliothek" id="pdqJQRu24QQc2RX6r1ZG">
    <mxGraphModel dx="2299" dy="1288" grid="0" gridSize="10" guides="1" tooltips="1" connect="1" arrows="1" fold="1" page="0" pageScale="1" pageWidth="827" pageHeight="1169" math="0" shadow="0">
      <root>
        <mxCell id="odLQTK6fC1Y2ohIYwp4j-0" />
        <mxCell id="odLQTK6fC1Y2ohIYwp4j-1" parent="odLQTK6fC1Y2ohIYwp4j-0" />
        <mxCell id="odLQTK6fC1Y2ohIYwp4j-2" value="&lt;font size=&quot;1&quot;&gt;&lt;b style=&quot;background-color: rgb(128, 255, 0); font-size: 30px;&quot;&gt;ER-Modell: Übung&lt;/b&gt;&lt;/font&gt;" style="text;html=1;align=center;verticalAlign=middle;whiteSpace=wrap;rounded=0;fontSize=16;" vertex="1" parent="odLQTK6fC1Y2ohIYwp4j-1">
          <mxGeometry x="-401" y="-181" width="1215" height="30" as="geometry" />
        </mxCell>
        <mxCell id="odLQTK6fC1Y2ohIYwp4j-3" value="&lt;div align=&quot;left&quot;&gt;&lt;u&gt;Beispiel1:&lt;/u&gt; Wir betrachten die Relation: &lt;font color=&quot;#0000ff&quot;&gt;Student(in) besucht Unibibliothek&lt;/font&gt;&lt;br&gt;&lt;/div&gt;&lt;div align=&quot;left&quot;&gt;&lt;br&gt;&lt;font color=&quot;#0000ff&quot;&gt;Um welche Art von Relation handelt es sich? (1:1, 1:n oder m:n)&lt;br&gt;Ordne die Begriffe richtig zu und unterstreiche die Primärschlüssel:&lt;br&gt;&lt;/font&gt;&lt;/div&gt;&lt;div align=&quot;left&quot;&gt;&lt;font color=&quot;#0000ff&quot;&gt;&lt;br&gt;&lt;/font&gt;&lt;/div&gt;&lt;div align=&quot;left&quot;&gt;&lt;font color=&quot;#0000ff&quot;&gt;besucht, Unibibliothek, Student(in), Adresse, Name, Matrikelnummer, Sortiment, Fachsemester&lt;br&gt;&lt;/font&gt;&lt;br&gt;&lt;/div&gt;" style="text;html=1;align=left;verticalAlign=middle;whiteSpace=wrap;rounded=0;fontSize=16;fillColor=#fff2cc;strokeColor=#d6b656;" vertex="1" parent="odLQTK6fC1Y2ohIYwp4j-1">
          <mxGeometry x="-429" y="-111" width="676" height="221" as="geometry" />
        </mxCell>
        <mxCell id="odLQTK6fC1Y2ohIYwp4j-4" value="Relationship" style="shape=rhombus;double=1;perimeter=rhombusPerimeter;whiteSpace=wrap;html=1;align=center;" vertex="1" parent="odLQTK6fC1Y2ohIYwp4j-1">
          <mxGeometry x="98" y="281" width="120" height="60" as="geometry" />
        </mxCell>
        <mxCell id="odLQTK6fC1Y2ohIYwp4j-5" value="Entity" style="shape=ext;margin=3;double=1;whiteSpace=wrap;html=1;align=center;" vertex="1" parent="odLQTK6fC1Y2ohIYwp4j-1">
          <mxGeometry x="-266" y="291" width="100" height="40" as="geometry" />
        </mxCell>
        <mxCell id="odLQTK6fC1Y2ohIYwp4j-6" value="Entity" style="shape=ext;margin=3;double=1;whiteSpace=wrap;html=1;align=center;" vertex="1" parent="odLQTK6fC1Y2ohIYwp4j-1">
          <mxGeometry x="433" y="291" width="100" height="40" as="geometry" />
        </mxCell>
        <mxCell id="odLQTK6fC1Y2ohIYwp4j-7" value="Attribute" style="ellipse;whiteSpace=wrap;html=1;align=center;" vertex="1" parent="odLQTK6fC1Y2ohIYwp4j-1">
          <mxGeometry x="-381" y="197" width="100" height="40" as="geometry" />
        </mxCell>
        <mxCell id="odLQTK6fC1Y2ohIYwp4j-8" value="Attribute" style="ellipse;whiteSpace=wrap;html=1;align=center;" vertex="1" parent="odLQTK6fC1Y2ohIYwp4j-1">
          <mxGeometry x="-237" y="192" width="100" height="40" as="geometry" />
        </mxCell>
        <mxCell id="odLQTK6fC1Y2ohIYwp4j-9" value="Attribute" style="ellipse;whiteSpace=wrap;html=1;align=center;" vertex="1" parent="odLQTK6fC1Y2ohIYwp4j-1">
          <mxGeometry x="-79" y="207" width="100" height="40" as="geometry" />
        </mxCell>
        <mxCell id="odLQTK6fC1Y2ohIYwp4j-10" value="Attribute" style="ellipse;whiteSpace=wrap;html=1;align=center;" vertex="1" parent="odLQTK6fC1Y2ohIYwp4j-1">
          <mxGeometry x="313" y="178" width="100" height="40" as="geometry" />
        </mxCell>
        <mxCell id="odLQTK6fC1Y2ohIYwp4j-11" value="Attribute" style="ellipse;whiteSpace=wrap;html=1;align=center;" vertex="1" parent="odLQTK6fC1Y2ohIYwp4j-1">
          <mxGeometry x="457" y="173" width="100" height="40" as="geometry" />
        </mxCell>
        <mxCell id="odLQTK6fC1Y2ohIYwp4j-13" value="" style="endArrow=none;html=1;rounded=0;fontSize=12;startSize=8;endSize=8;curved=1;exitX=0.5;exitY=1;exitDx=0;exitDy=0;entryX=0.5;entryY=0;entryDx=0;entryDy=0;" edge="1" parent="odLQTK6fC1Y2ohIYwp4j-1" source="odLQTK6fC1Y2ohIYwp4j-8" target="odLQTK6fC1Y2ohIYwp4j-5">
          <mxGeometry relative="1" as="geometry">
            <mxPoint x="-177" y="241" as="sourcePoint" />
            <mxPoint x="-220" y="289" as="targetPoint" />
          </mxGeometry>
        </mxCell>
        <mxCell id="odLQTK6fC1Y2ohIYwp4j-14" value="" style="endArrow=none;html=1;rounded=0;fontSize=12;startSize=8;endSize=8;curved=1;entryX=0;entryY=0.5;entryDx=0;entryDy=0;exitX=1;exitY=0.5;exitDx=0;exitDy=0;" edge="1" parent="odLQTK6fC1Y2ohIYwp4j-1" source="odLQTK6fC1Y2ohIYwp4j-5" target="odLQTK6fC1Y2ohIYwp4j-4">
          <mxGeometry relative="1" as="geometry">
            <mxPoint x="-102" y="317" as="sourcePoint" />
            <mxPoint x="58" y="317" as="targetPoint" />
          </mxGeometry>
        </mxCell>
        <mxCell id="odLQTK6fC1Y2ohIYwp4j-15" value="" style="endArrow=none;html=1;rounded=0;fontSize=12;startSize=8;endSize=8;curved=1;exitX=1;exitY=0.5;exitDx=0;exitDy=0;entryX=0;entryY=0.5;entryDx=0;entryDy=0;" edge="1" parent="odLQTK6fC1Y2ohIYwp4j-1" source="odLQTK6fC1Y2ohIYwp4j-4" target="odLQTK6fC1Y2ohIYwp4j-6">
          <mxGeometry relative="1" as="geometry">
            <mxPoint x="224" y="314" as="sourcePoint" />
            <mxPoint x="384" y="314" as="targetPoint" />
          </mxGeometry>
        </mxCell>
        <mxCell id="odLQTK6fC1Y2ohIYwp4j-16" value="" style="endArrow=none;html=1;rounded=0;fontSize=12;startSize=8;endSize=8;curved=1;entryX=0.5;entryY=0;entryDx=0;entryDy=0;exitX=0.5;exitY=1;exitDx=0;exitDy=0;" edge="1" parent="odLQTK6fC1Y2ohIYwp4j-1" source="odLQTK6fC1Y2ohIYwp4j-7" target="odLQTK6fC1Y2ohIYwp4j-5">
          <mxGeometry relative="1" as="geometry">
            <mxPoint x="-397" y="284" as="sourcePoint" />
            <mxPoint x="-237" y="284" as="targetPoint" />
          </mxGeometry>
        </mxCell>
        <mxCell id="odLQTK6fC1Y2ohIYwp4j-17" value="" style="endArrow=none;html=1;rounded=0;fontSize=12;startSize=8;endSize=8;curved=1;entryX=0.5;entryY=0;entryDx=0;entryDy=0;exitX=0.61;exitY=0.95;exitDx=0;exitDy=0;exitPerimeter=0;" edge="1" parent="odLQTK6fC1Y2ohIYwp4j-1" source="odLQTK6fC1Y2ohIYwp4j-10" target="odLQTK6fC1Y2ohIYwp4j-6">
          <mxGeometry relative="1" as="geometry">
            <mxPoint x="288" y="261" as="sourcePoint" />
            <mxPoint x="448" y="261" as="targetPoint" />
          </mxGeometry>
        </mxCell>
        <mxCell id="odLQTK6fC1Y2ohIYwp4j-18" value="" style="endArrow=none;html=1;rounded=0;fontSize=12;startSize=8;endSize=8;curved=1;exitX=0.5;exitY=1;exitDx=0;exitDy=0;entryX=0.5;entryY=0;entryDx=0;entryDy=0;" edge="1" parent="odLQTK6fC1Y2ohIYwp4j-1" source="odLQTK6fC1Y2ohIYwp4j-9" target="odLQTK6fC1Y2ohIYwp4j-5">
          <mxGeometry relative="1" as="geometry">
            <mxPoint x="-44" y="258" as="sourcePoint" />
            <mxPoint x="-73" y="317" as="targetPoint" />
          </mxGeometry>
        </mxCell>
        <mxCell id="odLQTK6fC1Y2ohIYwp4j-19" value="" style="endArrow=none;html=1;rounded=0;fontSize=12;startSize=8;endSize=8;curved=1;exitX=0.5;exitY=1;exitDx=0;exitDy=0;" edge="1" parent="odLQTK6fC1Y2ohIYwp4j-1" source="odLQTK6fC1Y2ohIYwp4j-11">
          <mxGeometry relative="1" as="geometry">
            <mxPoint x="407" y="213" as="sourcePoint" />
            <mxPoint x="481" y="288" as="targetPoint" />
          </mxGeometry>
        </mxCell>
      </root>
    </mxGraphModel>
  </diagram>
  <diagram name="Bsp3_Plattenlabel" id="EIDlC2qatpLssGz3sHCG">
    <mxGraphModel dx="2474" dy="1151" grid="0" gridSize="10" guides="1" tooltips="1" connect="1" arrows="1" fold="1" page="0" pageScale="1" pageWidth="827" pageHeight="1169" math="0" shadow="0">
      <root>
        <mxCell id="TKsAvlXxy5b1ATl-8vwF-0" />
        <mxCell id="TKsAvlXxy5b1ATl-8vwF-1" parent="TKsAvlXxy5b1ATl-8vwF-0" />
        <mxCell id="TKsAvlXxy5b1ATl-8vwF-2" value="&lt;font size=&quot;1&quot;&gt;&lt;b style=&quot;background-color: rgb(128, 255, 0); font-size: 30px;&quot;&gt;ER-Modell: Übung&lt;/b&gt;&lt;/font&gt;" style="text;html=1;align=center;verticalAlign=middle;whiteSpace=wrap;rounded=0;fontSize=16;" parent="TKsAvlXxy5b1ATl-8vwF-1" vertex="1">
          <mxGeometry x="-401" y="-181" width="1215" height="30" as="geometry" />
        </mxCell>
        <mxCell id="TKsAvlXxy5b1ATl-8vwF-3" value="&lt;div align=&quot;left&quot;&gt;&lt;u&gt;Beispiel1:&lt;/u&gt; Wir betrachten die Relationen zwischen: &lt;font color=&quot;#0000ff&quot;&gt;Plattenlabel, Künstler, CD&lt;/font&gt;&lt;br&gt;&lt;/div&gt;&lt;div align=&quot;left&quot;&gt;&lt;br&gt;&lt;br&gt;&lt;font color=&quot;#0000ff&quot;&gt;Erstelle selbst das ER-Modell. Um welche Art von Relationen handelt es sich jeweils? &lt;br&gt;(1:1, 1:n oder m:n). Ordne die Begriffe richtig zu und unterstreiche die Primärschlüssel:&lt;br&gt;&lt;/font&gt;&lt;/div&gt;&lt;div align=&quot;left&quot;&gt;&lt;font color=&quot;#0000ff&quot;&gt;&lt;br&gt;&lt;/font&gt;&lt;/div&gt;&lt;div align=&quot;left&quot;&gt;&lt;font color=&quot;#0000ff&quot;&gt;Künstler, CD, Künstler-ID, ISBN, Tracktitel, Label-ID, Titel, Interpret, unterVertrag, Label, veröffentlicht&lt;br&gt;&lt;/font&gt;&lt;br&gt;&lt;/div&gt;" style="text;html=1;align=left;verticalAlign=middle;whiteSpace=wrap;rounded=0;fontSize=16;fillColor=#fff2cc;strokeColor=#d6b656;" parent="TKsAvlXxy5b1ATl-8vwF-1" vertex="1">
          <mxGeometry x="-429" y="-111" width="676" height="221" as="geometry" />
        </mxCell>
        <mxCell id="TKsAvlXxy5b1ATl-8vwF-4" value="Relationship" style="shape=rhombus;double=1;perimeter=rhombusPerimeter;whiteSpace=wrap;html=1;align=center;" parent="TKsAvlXxy5b1ATl-8vwF-1" vertex="1">
          <mxGeometry x="98" y="281" width="120" height="60" as="geometry" />
        </mxCell>
        <mxCell id="TKsAvlXxy5b1ATl-8vwF-5" value="Entity" style="shape=ext;margin=3;double=1;whiteSpace=wrap;html=1;align=center;" parent="TKsAvlXxy5b1ATl-8vwF-1" vertex="1">
          <mxGeometry x="-266" y="291" width="100" height="40" as="geometry" />
        </mxCell>
        <mxCell id="TKsAvlXxy5b1ATl-8vwF-6" value="Entity" style="shape=ext;margin=3;double=1;whiteSpace=wrap;html=1;align=center;" parent="TKsAvlXxy5b1ATl-8vwF-1" vertex="1">
          <mxGeometry x="433" y="291" width="100" height="40" as="geometry" />
        </mxCell>
        <mxCell id="TKsAvlXxy5b1ATl-8vwF-7" value="Attribute" style="ellipse;whiteSpace=wrap;html=1;align=center;" parent="TKsAvlXxy5b1ATl-8vwF-1" vertex="1">
          <mxGeometry x="-381" y="197" width="100" height="40" as="geometry" />
        </mxCell>
        <mxCell id="TKsAvlXxy5b1ATl-8vwF-8" value="Attribute" style="ellipse;whiteSpace=wrap;html=1;align=center;" parent="TKsAvlXxy5b1ATl-8vwF-1" vertex="1">
          <mxGeometry x="-237" y="192" width="100" height="40" as="geometry" />
        </mxCell>
        <mxCell id="TKsAvlXxy5b1ATl-8vwF-9" value="Attribute" style="ellipse;whiteSpace=wrap;html=1;align=center;" parent="TKsAvlXxy5b1ATl-8vwF-1" vertex="1">
          <mxGeometry x="-79" y="207" width="100" height="40" as="geometry" />
        </mxCell>
        <mxCell id="TKsAvlXxy5b1ATl-8vwF-10" value="Attribute" style="ellipse;whiteSpace=wrap;html=1;align=center;" parent="TKsAvlXxy5b1ATl-8vwF-1" vertex="1">
          <mxGeometry x="313" y="178" width="100" height="40" as="geometry" />
        </mxCell>
        <mxCell id="TKsAvlXxy5b1ATl-8vwF-11" value="Attribute" style="ellipse;whiteSpace=wrap;html=1;align=center;" parent="TKsAvlXxy5b1ATl-8vwF-1" vertex="1">
          <mxGeometry x="457" y="173" width="100" height="40" as="geometry" />
        </mxCell>
        <mxCell id="IFChToSvNUCZl8C3oVdn-0" value="Relationship" style="shape=rhombus;double=1;perimeter=rhombusPerimeter;whiteSpace=wrap;html=1;align=center;" parent="TKsAvlXxy5b1ATl-8vwF-1" vertex="1">
          <mxGeometry x="-44" y="368" width="120" height="60" as="geometry" />
        </mxCell>
        <mxCell id="IFChToSvNUCZl8C3oVdn-3" value="Entity" style="shape=ext;margin=3;double=1;whiteSpace=wrap;html=1;align=center;" parent="TKsAvlXxy5b1ATl-8vwF-1" vertex="1">
          <mxGeometry x="-179" y="383" width="100" height="40" as="geometry" />
        </mxCell>
        <mxCell id="IFChToSvNUCZl8C3oVdn-6" value="Attribute" style="ellipse;whiteSpace=wrap;html=1;align=center;" parent="TKsAvlXxy5b1ATl-8vwF-1" vertex="1">
          <mxGeometry x="89" y="202" width="100" height="40" as="geometry" />
        </mxCell>
      </root>
    </mxGraphModel>
  </diagram>
  <diagram name="Bsp4_Bibliothek" id="gt_dJDevgK6eXG1gsuLU">
    <mxGraphModel dx="2299" dy="1288" grid="0" gridSize="10" guides="1" tooltips="1" connect="1" arrows="1" fold="1" page="0" pageScale="1" pageWidth="827" pageHeight="1169" math="0" shadow="0">
      <root>
        <mxCell id="LiZKHEjTwBi0cfXx2JOB-0" />
        <mxCell id="LiZKHEjTwBi0cfXx2JOB-1" parent="LiZKHEjTwBi0cfXx2JOB-0" />
        <mxCell id="LiZKHEjTwBi0cfXx2JOB-2" value="&lt;font size=&quot;1&quot;&gt;&lt;b style=&quot;background-color: rgb(128, 255, 0); font-size: 30px;&quot;&gt;ER-Modell: Übung&lt;/b&gt;&lt;/font&gt;" style="text;html=1;align=center;verticalAlign=middle;whiteSpace=wrap;rounded=0;fontSize=16;" vertex="1" parent="LiZKHEjTwBi0cfXx2JOB-1">
          <mxGeometry x="-401" y="-181" width="1215" height="30" as="geometry" />
        </mxCell>
        <mxCell id="LiZKHEjTwBi0cfXx2JOB-3" value="&lt;div align=&quot;left&quot;&gt;&lt;u&gt;Beispiel1:&lt;/u&gt; Wir betrachten die Relationen zwischen: &lt;font color=&quot;#0000ff&quot;&gt;Schüler-Ausleihvorgang und Ausleihvorgang-Buch&lt;/font&gt;&lt;br&gt;&lt;/div&gt;&lt;div align=&quot;left&quot;&gt;&lt;br&gt;&lt;br&gt;&lt;font color=&quot;#0000ff&quot;&gt;Erstelle selbst das ER-Modell. Um welche Art von Relationen handelt es sich jeweils? &lt;br&gt;(1:1, 1:n oder m:n). Ordne die Begriffe richtig zu und unterstreiche die Primärschlüssel:&lt;br&gt;&lt;/font&gt;&lt;/div&gt;&lt;div align=&quot;left&quot;&gt;&lt;font color=&quot;#0000ff&quot;&gt;&lt;br&gt;&lt;/font&gt;&lt;/div&gt;&lt;div align=&quot;left&quot;&gt;&lt;font color=&quot;#0000ff&quot;&gt;Jeder Ausleihvorgang ist eindeutig einem Schüler zugeordnet. Ein Schüler kann aber auch mehrere Ausleihen tätigen. Jeder Ausleihvorgang hat die Attribute ID, Verleihdatum, zurückgegeben. Ein Ausleihvorgang ist ebenso der Entität &quot;Buch&quot; zugeordnet. Ein Ausleihvorgang kann mehrere Bücher enthalten, aber jedes Buch kann gleichzeitig nur einem Ausleihvorgang zugeordnet werden. Die interessierenden Atrribute bei Büchern sind ISBN, Buchtitel und Autor(en)&lt;br&gt;&lt;/font&gt;&lt;br&gt;&lt;/div&gt;" style="text;html=1;align=left;verticalAlign=middle;whiteSpace=wrap;rounded=0;fontSize=16;fillColor=#fff2cc;strokeColor=#d6b656;" vertex="1" parent="LiZKHEjTwBi0cfXx2JOB-1">
          <mxGeometry x="-429" y="-111" width="676" height="221" as="geometry" />
        </mxCell>
        <mxCell id="LiZKHEjTwBi0cfXx2JOB-4" value="Relationship" style="shape=rhombus;double=1;perimeter=rhombusPerimeter;whiteSpace=wrap;html=1;align=center;" vertex="1" parent="LiZKHEjTwBi0cfXx2JOB-1">
          <mxGeometry x="98" y="281" width="120" height="60" as="geometry" />
        </mxCell>
        <mxCell id="LiZKHEjTwBi0cfXx2JOB-5" value="Entity" style="shape=ext;margin=3;double=1;whiteSpace=wrap;html=1;align=center;" vertex="1" parent="LiZKHEjTwBi0cfXx2JOB-1">
          <mxGeometry x="-266" y="291" width="100" height="40" as="geometry" />
        </mxCell>
        <mxCell id="LiZKHEjTwBi0cfXx2JOB-6" value="Entity" style="shape=ext;margin=3;double=1;whiteSpace=wrap;html=1;align=center;" vertex="1" parent="LiZKHEjTwBi0cfXx2JOB-1">
          <mxGeometry x="433" y="291" width="100" height="40" as="geometry" />
        </mxCell>
        <mxCell id="LiZKHEjTwBi0cfXx2JOB-7" value="Attribute" style="ellipse;whiteSpace=wrap;html=1;align=center;" vertex="1" parent="LiZKHEjTwBi0cfXx2JOB-1">
          <mxGeometry x="-381" y="197" width="100" height="40" as="geometry" />
        </mxCell>
        <mxCell id="LiZKHEjTwBi0cfXx2JOB-8" value="Attribute" style="ellipse;whiteSpace=wrap;html=1;align=center;" vertex="1" parent="LiZKHEjTwBi0cfXx2JOB-1">
          <mxGeometry x="-237" y="192" width="100" height="40" as="geometry" />
        </mxCell>
        <mxCell id="LiZKHEjTwBi0cfXx2JOB-9" value="Attribute" style="ellipse;whiteSpace=wrap;html=1;align=center;" vertex="1" parent="LiZKHEjTwBi0cfXx2JOB-1">
          <mxGeometry x="-79" y="207" width="100" height="40" as="geometry" />
        </mxCell>
        <mxCell id="LiZKHEjTwBi0cfXx2JOB-10" value="Attribute" style="ellipse;whiteSpace=wrap;html=1;align=center;" vertex="1" parent="LiZKHEjTwBi0cfXx2JOB-1">
          <mxGeometry x="313" y="178" width="100" height="40" as="geometry" />
        </mxCell>
        <mxCell id="LiZKHEjTwBi0cfXx2JOB-11" value="Attribute" style="ellipse;whiteSpace=wrap;html=1;align=center;" vertex="1" parent="LiZKHEjTwBi0cfXx2JOB-1">
          <mxGeometry x="457" y="173" width="100" height="40" as="geometry" />
        </mxCell>
        <mxCell id="LiZKHEjTwBi0cfXx2JOB-12" value="Relationship" style="shape=rhombus;double=1;perimeter=rhombusPerimeter;whiteSpace=wrap;html=1;align=center;" vertex="1" parent="LiZKHEjTwBi0cfXx2JOB-1">
          <mxGeometry x="-44" y="368" width="120" height="60" as="geometry" />
        </mxCell>
        <mxCell id="LiZKHEjTwBi0cfXx2JOB-13" value="Entity" style="shape=ext;margin=3;double=1;whiteSpace=wrap;html=1;align=center;" vertex="1" parent="LiZKHEjTwBi0cfXx2JOB-1">
          <mxGeometry x="-179" y="383" width="100" height="40" as="geometry" />
        </mxCell>
        <mxCell id="LiZKHEjTwBi0cfXx2JOB-14" value="Attribute" style="ellipse;whiteSpace=wrap;html=1;align=center;" vertex="1" parent="LiZKHEjTwBi0cfXx2JOB-1">
          <mxGeometry x="89" y="202" width="100" height="40" as="geometry" />
        </mxCell>
      </root>
    </mxGraphModel>
  </diagram>
</mxfile>
